<?xml version="1.0" encoding="utf-8"?>
<!-- Generator: Adobe Illustrator 16.0.0, SVG Export Plug-In . SVG Version: 6.00 Build 0)  -->
<!DOCTYPE svg PUBLIC "-//W3C//DTD SVG 1.1//EN" "http://www.w3.org/Graphics/SVG/1.1/DTD/svg11.dtd">
<svg version="1.1" id="Layer_1" xmlns="http://www.w3.org/2000/svg" xmlns:xlink="http://www.w3.org/1999/xlink" x="0px" y="0px"
	 width="279.479px" height="137.243px" viewBox="0 0 279.479 137.243" enable-background="new 0 0 279.479 137.243"
	 xml:space="preserve">
<path id="logo" fill="#5D5D5D" d="M14.247,126.506c-0.311,0.583-0.7,0.817-1.05,0.817c-0.351,0-0.701-0.234-1.012-0.817l-6.419-12.333v21.98
	c0,0.662-0.661,1.012-1.283,1.012c-0.662,0-1.284-0.35-1.284-1.012v-26.18c0-0.934,0.622-1.245,1.284-1.245
	c0.933,0,1.555,0.817,2.061,1.789l6.691,12.915l6.69-12.915c0.507-0.972,1.13-1.789,2.062-1.789c0.701,0,1.284,0.311,1.284,1.245
	v26.18c0,0.662-0.622,1.012-1.284,1.012c-0.622,0-1.284-0.35-1.284-1.012v-21.863L14.247,126.506z"/>
<path fill="#5D5D5D" d="M31.756,121.799h6.107c0.622,0,0.973,0.545,0.973,1.167c0,0.506-0.272,1.051-0.973,1.051h-6.107v10.776
	h12.448c0.624,0,0.973,0.582,0.973,1.205c0,0.545-0.271,1.167-0.973,1.167H30.355c-0.584,0-1.166-0.35-1.166-1.012V109.7
	c0-0.66,0.582-0.971,1.166-0.971h13.849c0.702,0,0.973,0.582,0.973,1.128c0,0.66-0.349,1.244-0.973,1.244H31.756V121.799z"/>
<path fill="#5D5D5D" d="M57.006,108.728c4.553,0,8.13,2.256,8.13,8.286v11.826c0,6.068-3.577,8.325-8.13,8.325H50.12
	c-0.7,0-1.167-0.467-1.167-0.973v-26.531c0-0.505,0.467-0.933,1.167-0.933H57.006z M51.521,111.101v23.691h5.484
	c3.462,0,5.563-1.907,5.563-5.952v-11.826c0-4.046-2.102-5.913-5.563-5.913H51.521z"/>
<path fill="#5D5D5D" d="M70.741,109.661c0-0.661,0.622-0.933,1.284-0.933c0.622,0,1.282,0.272,1.282,0.933v26.492
	c0,0.662-0.66,1.012-1.282,1.012c-0.662,0-1.284-0.35-1.284-1.012V109.661z"/>
<path fill="#5D5D5D" d="M87.081,111.101c-3.617,0-5.602,1.867-5.602,5.913v12.06c0,4.084,1.984,5.951,5.757,5.951
	c4.631,0,5.059-2.918,5.29-4.784c0.078-0.623,0.468-1.012,1.284-1.012c0.896,0,1.284,0.311,1.284,1.594
	c0,3.541-2.996,6.575-8.131,6.575c-4.396,0-8.052-2.256-8.052-8.324v-12.06c0-6.03,3.734-8.286,8.169-8.286
	c5.096,0,8.014,2.995,8.014,6.496c0,1.284-0.389,1.556-1.284,1.556c-0.895,0-1.245-0.428-1.284-0.973
	C92.449,114.136,91.71,111.101,87.081,111.101"/>
<path fill="#5D5D5D" d="M97.432,136.076c0-0.078,0-0.195,0.039-0.273l8.13-26.414c0.194-0.623,0.855-0.895,1.516-0.895
	c0.702,0,1.362,0.311,1.557,0.895l8.092,26.414c0,0.078,0.039,0.156,0.039,0.234c0,0.622-0.855,1.128-1.556,1.128
	c-0.428,0-0.816-0.195-0.973-0.661l-1.789-5.991h-10.777l-1.788,5.991c-0.117,0.466-0.546,0.661-1.012,0.661
	C98.248,137.165,97.432,136.737,97.432,136.076 M111.824,128.295l-4.708-15.677l-4.745,15.677H111.824z"/>
<path fill="#5D5D5D" d="M121.747,137.165c-0.583,0-1.167-0.35-1.167-1.012v-26.492c0-0.661,0.623-0.932,1.283-0.932
	c0.623,0,1.284,0.271,1.284,0.932v25.131h11.086c0.585,0,0.856,0.583,0.856,1.167c0,0.622-0.271,1.206-0.856,1.206H121.747z"/>
<path fill="#5D5D5D" d="M160.574,108.729c0.661,0,0.973,0.583,0.973,1.167c0,0.622-0.312,1.245-0.973,1.245h-6.496v25.012
	c0,0.663-0.661,1.012-1.284,1.012c-0.661,0-1.284-0.349-1.284-1.012v-25.012h-6.535c-0.622,0-0.973-0.584-0.973-1.206
	c0-0.584,0.312-1.206,0.973-1.206H160.574z"/>
<path fill="#5D5D5D" d="M164.115,129.075v-12.06c0-6.03,3.541-8.286,8.093-8.286s8.091,2.256,8.091,8.286v12.06
	c0,6.068-3.539,8.323-8.091,8.323S164.115,135.143,164.115,129.075 M177.732,117.015c0-4.047-2.062-5.913-5.524-5.913
	c-3.463,0-5.524,1.866-5.524,5.913v12.06c0,4.084,2.062,5.951,5.524,5.951c3.462,0,5.524-1.867,5.524-5.951V117.015z"/>
<path fill="#5D5D5D" d="M199.559,109.661c0-0.661,0.623-0.933,1.283-0.933c0.623,0,1.284,0.272,1.284,0.933v19.413
	c0,6.068-3.618,8.324-8.169,8.324c-4.591,0-8.17-2.256-8.17-8.324v-19.413c0-0.661,0.662-0.933,1.284-0.933
	c0.662,0,1.283,0.272,1.283,0.933v19.413c0,4.045,2.101,5.951,5.603,5.951c3.5,0,5.602-1.906,5.602-5.951V109.661z"/>
<path fill="#5D5D5D" d="M207.925,109.661c0-0.505,0.389-0.895,0.973-0.933h6.886c4.552,0,8.402,1.828,8.402,7.663
	c0,4.824-2.684,6.924-6.067,7.508l5.989,11.515c0.117,0.156,0.156,0.35,0.156,0.506c0,0.661-0.738,1.323-1.479,1.323
	c-0.621,0-1.05-0.739-1.36-1.362l-5.992-11.671h-4.939v11.943c0,0.662-0.661,1.012-1.284,1.012c-0.661,0-1.284-0.35-1.284-1.012
	V109.661z M210.493,111.101v10.893h5.29c3.463,0,5.836-1.557,5.836-5.486c0-3.89-2.373-5.407-5.836-5.407H210.493z"/>
<path fill="#5D5D5D" d="M228.506,109.661c0-0.661,0.623-0.933,1.284-0.933c0.623,0,1.284,0.272,1.284,0.933v26.492
	c0,0.662-0.661,1.012-1.284,1.012c-0.661,0-1.284-0.35-1.284-1.012V109.661z"/>
<path fill="#5D5D5D" d="M249.048,129.657c0-8.636-12.916-4.434-12.916-13.926c0-5.681,4.63-7.08,8.247-7.08
	c2.918,0,6.536,0.971,6.536,2.372c0,0.506-0.428,1.44-1.128,1.44c-0.739,0-2.023-1.479-5.447-1.479c-2.878,0-5.64,1.051-5.64,4.513
	c0,7.236,12.914,3.151,12.914,13.927c0,5.523-3.422,8.013-8.208,8.013c-4.979,0-7.976-2.801-7.976-4.202
	c0-0.621,0.584-1.438,1.168-1.438c1.012,0,1.789,3.228,6.653,3.228C246.869,135.025,249.048,133.198,249.048,129.657"/>
<path fill="#5D5D5D" d="M267.255,126.506c-0.311,0.583-0.7,0.817-1.05,0.817c-0.352,0-0.701-0.234-1.012-0.817l-6.419-12.333v21.98
	c0,0.662-0.661,1.012-1.283,1.012c-0.662,0-1.284-0.35-1.284-1.012v-26.18c0-0.934,0.622-1.245,1.284-1.245
	c0.933,0,1.556,0.817,2.062,1.789l6.69,12.915l6.69-12.915c0.507-0.972,1.129-1.789,2.062-1.789c0.701,0,1.284,0.311,1.284,1.245
	v26.18c0,0.662-0.622,1.012-1.284,1.012c-0.622,0-1.284-0.35-1.284-1.012v-21.863L267.255,126.506z"/>
<path fill="#742775" d="M14.031,85.365c-1.744-1.299-3.214-2.572-4.409-3.82c-1.195-1.247-2.141-2.248-2.835-3.006l-0.195-0.201
	c-0.043-0.088-0.087-0.144-0.13-0.167c-0.044-0.022-0.089-0.055-0.132-0.101c-0.043-0.088-0.087-0.144-0.13-0.167
	c-0.044-0.022-0.088-0.055-0.13-0.099c-1-1.115-1.495-2.002-1.488-2.663c0.009-0.749,0.522-1.581,1.546-2.496l11.526-10.753
	c0.93-0.65,1.682-0.971,2.252-0.965c0.396,0.004,0.812,0.141,1.249,0.409c0.437,0.269,0.959,0.671,1.569,1.205
	c0.741,0.624,1.687,1.459,2.841,2.504c1.153,1.047,2.472,2.083,3.955,3.111c2.226,1.519,4.432,2.709,6.621,3.568
	c2.188,0.86,4.492,1.302,6.91,1.329c2.241,0.024,4.123-0.207,5.646-0.695c1.522-0.488,2.727-1.145,3.615-1.97
	c0.889-0.825,1.526-1.784,1.912-2.877c0.385-1.095,0.585-2.257,0.599-3.487c0.016-1.361-0.489-2.586-1.509-3.673
	c-1.021-1.087-2.275-2.057-3.76-2.908c-1.486-0.85-3.039-1.581-4.658-2.193c-1.62-0.611-3.021-1.119-4.204-1.529
	c-5.254-1.902-9.847-3.94-13.78-6.114c-3.933-2.174-7.204-4.583-9.812-7.225c-2.609-2.641-4.555-5.541-5.839-8.696
	s-1.905-6.664-1.862-10.53c0.045-4.084,0.91-7.787,2.596-11.107c1.546-3.045,3.707-5.657,6.429-7.876H6.265
	C2.819,2.172,0,4.992,0,8.437v73.19c0,3.445,2.819,6.264,6.265,6.264h11.517C16.506,87.095,15.25,86.264,14.031,85.365"/>
<path fill="#147EA3" d="M79.454,2.173h-9.575c0.452,0.308,0.909,0.613,1.345,0.927c1.33,0.961,2.495,1.886,3.498,2.776
	c1.001,0.891,1.794,1.734,2.378,2.531c0.585,0.798,0.875,1.484,0.868,2.054c-0.006,0.573-0.156,1.098-0.445,1.578
	c-0.292,0.482-0.728,1.026-1.305,1.635L66.011,24.31c-0.756,0.74-1.508,1.104-2.254,1.096c-0.616-0.007-1.175-0.189-1.676-0.546
	c-0.502-0.357-1.058-0.803-1.667-1.338l-0.587-0.534c-0.872-0.756-1.841-1.537-2.909-2.34c-1.069-0.803-2.215-1.53-3.438-2.181
	c-1.225-0.65-2.516-1.192-3.873-1.625c-1.358-0.433-2.74-0.658-4.147-0.673c-1.45-0.016-2.813,0.091-4.092,0.318
	c-1.278,0.228-2.403,0.6-3.375,1.117c-0.974,0.517-1.751,1.2-2.331,2.051c-0.581,0.851-0.878,1.893-0.893,3.123
	c-0.013,1.231,0.282,2.301,0.889,3.208c0.604,0.908,1.519,1.754,2.742,2.535c1.221,0.784,2.74,1.527,4.558,2.228
	c1.816,0.701,3.929,1.461,6.339,2.279c4.641,1.59,8.921,3.253,12.837,4.988c3.914,1.736,7.288,3.774,10.121,6.113
	c2.831,2.339,5.031,5.123,6.602,8.349c1.567,3.227,2.327,7.126,2.277,11.697c-0.054,4.836-1.091,9.21-3.112,13.121
	c-2.022,3.913-4.774,7.235-8.255,9.966c-0.283,0.222-0.596,0.414-0.887,0.628h10.574c3.445,0,6.264-2.818,6.264-6.263V8.437
	C85.718,4.992,82.899,2.173,79.454,2.173"/>
<path fill="#147EA3" d="M108.081,2.308c0.038-0.237,0.167-0.493,0.386-0.768c0.216-0.277,0.481-0.534,0.798-0.77
	c0.315-0.238,0.651-0.425,1.006-0.563C110.626,0.07,110.961,0,111.277,0h15.151c0.671,0,1.243,0.207,1.717,0.622
	c0.473,0.413,0.828,0.778,1.065,1.094l1.479,3.373l31.073,80.139c0.314,0.788,0.255,1.43-0.178,1.923
	c-0.436,0.493-1.184,0.739-2.248,0.739H142.35c-0.908,0-1.608-0.168-2.102-0.503s-0.878-0.897-1.154-1.687
	c-0.789-2.012-1.56-4.014-2.308-6.007c-0.75-1.991-1.5-3.994-2.25-6.008h-31.427c-0.75,2.014-1.509,4.017-2.278,6.008
	c-0.77,1.993-1.529,3.995-2.278,6.007c-0.514,1.461-1.52,2.19-3.02,2.19h-17.46c-0.749,0-1.371-0.197-1.863-0.591
	c-0.493-0.394-0.582-0.986-0.266-1.776L108.081,2.308z M118.853,27.639c-0.749,2.014-1.509,4.183-2.279,6.511
	c-0.768,2.328-1.528,4.676-2.277,7.043c-0.75,2.367-1.51,4.705-2.279,7.013c-0.77,2.309-1.529,4.469-2.278,6.481h18.17
	L118.853,27.639z"/>
<path fill="#147EA3" d="M166.674,2.605c0-0.71,0.218-1.322,0.65-1.835C167.76,0.257,168.41,0,169.278,0h19.353
	c0.554,0,1.125,0.139,1.718,0.415c0.591,0.275,1.104,0.749,1.539,1.42c5.009,8.088,9.98,16.059,14.914,23.911
	c4.932,7.852,9.923,15.823,14.975,23.911V2.25c0.156-0.71,0.472-1.263,0.946-1.659C223.196,0.197,223.747,0,224.379,0h16.868
	c0.829,0,1.52,0.228,2.071,0.68c0.552,0.455,0.829,1.096,0.829,1.925v82.978c0,0.788-0.236,1.371-0.71,1.745
	c-0.475,0.375-1.125,0.562-1.954,0.562h-18.88c-0.514,0-0.967-0.177-1.361-0.532c-0.394-0.355-0.809-0.829-1.242-1.42
	c-5.249-8.681-10.438-17.262-15.565-25.746c-5.13-8.484-10.338-17.065-15.626-25.746v50.839c0,0.869-0.197,1.521-0.592,1.954
	c-0.394,0.435-1.104,0.651-2.131,0.651h-16.808c-0.909,0-1.569-0.246-1.983-0.739c-0.415-0.493-0.621-1.096-0.621-1.806V2.605z"/>
<path fill="#147EA3" d="M256.573,2.605c0-0.71,0.218-1.322,0.651-1.835c0.435-0.513,1.086-0.77,1.954-0.77h17.398
	c0.593,0,1.225,0.236,1.896,0.71s1.006,1.105,1.006,1.895v82.68c0,1.737-0.967,2.605-2.901,2.605h-17.398
	c-1.737,0-2.605-0.868-2.605-2.605V2.605z"/>
</svg>
