<svg xmlns="http://www.w3.org/2000/svg" width="279.479" height="137.243" viewBox="0 0 279.479 137.243"><path fill="#5D5D5D" d="M14.247 126.506c-.311.583-.7.817-1.05.817-.351 0-.701-.234-1.012-.817l-6.419-12.333v21.98c0 .662-.661 1.012-1.283 1.012-.662 0-1.284-.35-1.284-1.012v-26.18c0-.934.622-1.245 1.284-1.245.933 0 1.555.817 2.061 1.789l6.691 12.915 6.69-12.915c.507-.972 1.13-1.789 2.062-1.789.701 0 1.284.311 1.284 1.245v26.18c0 .662-.622 1.012-1.284 1.012-.622 0-1.284-.35-1.284-1.012V114.29l-6.456 12.216zm17.509-4.707h6.107c.622 0 .973.545.973 1.167 0 .506-.272 1.051-.973 1.051h-6.107v10.776h12.448c.624 0 .973.582.973 1.205 0 .545-.271 1.167-.973 1.167H30.355c-.584 0-1.166-.35-1.166-1.012V109.7c0-.66.582-.971 1.166-.971h13.849c.702 0 .973.582.973 1.128 0 .66-.349 1.244-.973 1.244H31.756v10.698zm25.25-13.071c4.553 0 8.13 2.256 8.13 8.286v11.826c0 6.068-3.577 8.325-8.13 8.325H50.12c-.7 0-1.167-.467-1.167-.973v-26.531c0-.505.467-.933 1.167-.933h6.886zm-5.485 2.373v23.691h5.484c3.462 0 5.563-1.907 5.563-5.952v-11.826c0-4.046-2.102-5.913-5.563-5.913h-5.484zm19.22-1.44c0-.661.622-.933 1.284-.933.622 0 1.282.272 1.282.933v26.492c0 .662-.66 1.012-1.282 1.012-.662 0-1.284-.35-1.284-1.012v-26.492zm16.34 1.44c-3.617 0-5.602 1.867-5.602 5.913v12.06c0 4.084 1.984 5.951 5.757 5.951 4.631 0 5.059-2.918 5.29-4.784.078-.623.468-1.012 1.284-1.012.896 0 1.284.311 1.284 1.594 0 3.541-2.996 6.575-8.131 6.575-4.396 0-8.052-2.256-8.052-8.324v-12.06c0-6.03 3.734-8.286 8.169-8.286 5.096 0 8.014 2.995 8.014 6.496 0 1.284-.389 1.556-1.284 1.556s-1.245-.428-1.284-.973c-.077-1.671-.816-4.706-5.445-4.706m10.351 24.975c0-.078 0-.195.039-.273l8.13-26.414c.194-.623.855-.895 1.516-.895.702 0 1.362.311 1.557.895l8.092 26.414c0 .078.039.156.039.234 0 .622-.855 1.128-1.556 1.128-.428 0-.816-.195-.973-.661l-1.789-5.991H101.71l-1.788 5.991c-.117.466-.546.661-1.012.661-.662 0-1.478-.428-1.478-1.089m14.392-7.781l-4.708-15.677-4.745 15.677h9.453zm9.923 8.87c-.583 0-1.167-.35-1.167-1.012v-26.492c0-.661.623-.932 1.283-.932.623 0 1.284.271 1.284.932v25.131h11.086c.585 0 .856.583.856 1.167 0 .622-.271 1.206-.856 1.206h-12.486zm38.827-28.436c.661 0 .973.583.973 1.167 0 .622-.312 1.245-.973 1.245h-6.496v25.012c0 .663-.661 1.012-1.284 1.012-.661 0-1.284-.349-1.284-1.012v-25.012h-6.535c-.622 0-.973-.584-.973-1.206 0-.584.312-1.206.973-1.206h15.599zm3.541 20.346v-12.06c0-6.03 3.541-8.286 8.093-8.286s8.091 2.256 8.091 8.286v12.06c0 6.068-3.539 8.323-8.091 8.323s-8.093-2.255-8.093-8.323m13.617-12.06c0-4.047-2.062-5.913-5.524-5.913-3.463 0-5.524 1.866-5.524 5.913v12.06c0 4.084 2.062 5.951 5.524 5.951s5.524-1.867 5.524-5.951v-12.06zm21.827-7.354c0-.661.623-.933 1.283-.933.623 0 1.284.272 1.284.933v19.413c0 6.068-3.618 8.324-8.169 8.324-4.591 0-8.17-2.256-8.17-8.324v-19.413c0-.661.662-.933 1.284-.933.662 0 1.283.272 1.283.933v19.413c0 4.045 2.101 5.951 5.603 5.951 3.5 0 5.602-1.906 5.602-5.951v-19.413zm8.366 0c0-.505.389-.895.973-.933h6.886c4.552 0 8.402 1.828 8.402 7.663 0 4.824-2.684 6.924-6.067 7.508l5.989 11.515c.117.156.156.35.156.506 0 .661-.738 1.323-1.479 1.323-.621 0-1.05-.739-1.36-1.362l-5.992-11.671h-4.939v11.943c0 .662-.661 1.012-1.284 1.012-.661 0-1.284-.35-1.284-1.012v-26.492zm2.568 1.44v10.893h5.29c3.463 0 5.836-1.557 5.836-5.486 0-3.89-2.373-5.407-5.836-5.407h-5.29zm18.013-1.44c0-.661.623-.933 1.284-.933.623 0 1.284.272 1.284.933v26.492c0 .662-.661 1.012-1.284 1.012-.661 0-1.284-.35-1.284-1.012v-26.492zm20.542 19.996c0-8.636-12.916-4.434-12.916-13.926 0-5.681 4.63-7.08 8.247-7.08 2.918 0 6.536.971 6.536 2.372 0 .506-.428 1.44-1.128 1.44-.739 0-2.023-1.479-5.447-1.479-2.878 0-5.64 1.051-5.64 4.513 0 7.236 12.914 3.151 12.914 13.927 0 5.523-3.422 8.013-8.208 8.013-4.979 0-7.976-2.801-7.976-4.202 0-.621.584-1.438 1.168-1.438 1.012 0 1.789 3.228 6.653 3.228 3.618 0 5.797-1.827 5.797-5.368m18.207-3.151c-.311.583-.7.817-1.05.817-.352 0-.701-.234-1.012-.817l-6.419-12.333v21.98c0 .662-.661 1.012-1.283 1.012-.662 0-1.284-.35-1.284-1.012v-26.18c0-.934.622-1.245 1.284-1.245.933 0 1.556.817 2.062 1.789l6.69 12.915 6.69-12.915c.507-.972 1.129-1.789 2.062-1.789.701 0 1.284.311 1.284 1.245v26.18c0 .662-.622 1.012-1.284 1.012-.622 0-1.284-.35-1.284-1.012V114.29l-6.456 12.216z"/><path fill="#742775" d="M14.031 85.365c-1.744-1.299-3.214-2.572-4.409-3.82a193.307 193.307 0 0 1-2.835-3.006l-.195-.201c-.043-.088-.087-.144-.13-.167a.47.47 0 0 1-.132-.101c-.043-.088-.087-.144-.13-.167a.478.478 0 0 1-.13-.099c-1-1.115-1.495-2.002-1.488-2.663.009-.749.522-1.581 1.546-2.496l11.526-10.753c.93-.65 1.682-.971 2.252-.965.396.004.812.141 1.249.409.437.269.959.671 1.569 1.205.741.624 1.687 1.459 2.841 2.504a38.536 38.536 0 0 0 3.955 3.111c2.226 1.519 4.432 2.709 6.621 3.568a19.32 19.32 0 0 0 6.91 1.329c2.241.024 4.123-.207 5.646-.695 1.522-.488 2.727-1.145 3.615-1.97a7.117 7.117 0 0 0 1.912-2.877 10.81 10.81 0 0 0 .599-3.487c.016-1.361-.489-2.586-1.509-3.673-1.021-1.087-2.275-2.057-3.76-2.908a32.536 32.536 0 0 0-4.658-2.193 167.665 167.665 0 0 0-4.204-1.529c-5.254-1.902-9.847-3.94-13.78-6.114s-7.204-4.583-9.812-7.225c-2.609-2.641-4.555-5.541-5.839-8.696s-1.905-6.664-1.862-10.53c.045-4.084.91-7.787 2.596-11.107 1.546-3.045 3.707-5.657 6.429-7.876H6.265C2.819 2.172 0 4.992 0 8.437v73.19c0 3.445 2.819 6.264 6.265 6.264h11.517a58.15 58.15 0 0 1-3.751-2.526"/><path fill="#147EA3" d="M79.454 2.173h-9.575c.452.308.909.613 1.345.927a44.932 44.932 0 0 1 3.498 2.776c1.001.891 1.794 1.734 2.378 2.531.585.798.875 1.484.868 2.054a3.066 3.066 0 0 1-.445 1.578c-.292.482-.728 1.026-1.305 1.635L66.011 24.31c-.756.74-1.508 1.104-2.254 1.096a2.88 2.88 0 0 1-1.676-.546 21.115 21.115 0 0 1-1.667-1.338l-.587-.534a53.824 53.824 0 0 0-2.909-2.34 26.244 26.244 0 0 0-3.438-2.181 23.457 23.457 0 0 0-3.873-1.625 14.072 14.072 0 0 0-4.147-.673 22.007 22.007 0 0 0-4.092.318c-1.278.228-2.403.6-3.375 1.117-.974.517-1.751 1.2-2.331 2.051-.581.851-.878 1.893-.893 3.123-.013 1.231.282 2.301.889 3.208.604.908 1.519 1.754 2.742 2.535 1.221.784 2.74 1.527 4.558 2.228 1.816.701 3.929 1.461 6.339 2.279 4.641 1.59 8.921 3.253 12.837 4.988 3.914 1.736 7.288 3.774 10.121 6.113 2.831 2.339 5.031 5.123 6.602 8.349 1.567 3.227 2.327 7.126 2.277 11.697-.054 4.836-1.091 9.21-3.112 13.121a30.083 30.083 0 0 1-8.255 9.966c-.283.222-.596.414-.887.628h10.574c3.445 0 6.264-2.818 6.264-6.263V8.437c0-3.445-2.819-6.264-6.264-6.264"/><path fill="#147EA3" d="M108.081 2.308c.038-.237.167-.493.386-.768.216-.277.481-.534.798-.77a4.168 4.168 0 0 1 1.006-.563A2.8 2.8 0 0 1 111.277 0h15.151c.671 0 1.243.207 1.717.622.473.413.828.778 1.065 1.094l1.479 3.373 31.073 80.139c.314.788.255 1.43-.178 1.923-.436.493-1.184.739-2.248.739H142.35c-.908 0-1.608-.168-2.102-.503s-.878-.897-1.154-1.687a438.798 438.798 0 0 1-2.308-6.007c-.75-1.991-1.5-3.994-2.25-6.008h-31.427a530.935 530.935 0 0 1-2.278 6.008 521.674 521.674 0 0 0-2.278 6.007c-.514 1.461-1.52 2.19-3.02 2.19h-17.46c-.749 0-1.371-.197-1.863-.591-.493-.394-.582-.986-.266-1.776l32.137-83.215zm10.772 25.331a188.838 188.838 0 0 0-2.279 6.511 607.224 607.224 0 0 0-2.277 7.043c-.75 2.367-1.51 4.705-2.279 7.013a199.769 199.769 0 0 1-2.278 6.481h18.17l-9.057-27.048zm47.821-25.034c0-.71.218-1.322.65-1.835.436-.513 1.086-.77 1.954-.77h19.353c.554 0 1.125.139 1.718.415.591.275 1.104.749 1.539 1.42 5.009 8.088 9.98 16.059 14.914 23.911 4.932 7.852 9.923 15.823 14.975 23.911V2.25c.156-.71.472-1.263.946-1.659A2.507 2.507 0 0 1 224.379 0h16.868c.829 0 1.52.228 2.071.68.552.455.829 1.096.829 1.925v82.978c0 .788-.236 1.371-.71 1.745-.475.375-1.125.562-1.954.562h-18.88c-.514 0-.967-.177-1.361-.532-.394-.355-.809-.829-1.242-1.42-5.249-8.681-10.438-17.262-15.565-25.746a9201.476 9201.476 0 0 0-15.626-25.746v50.839c0 .869-.197 1.521-.592 1.954-.394.435-1.104.651-2.131.651h-16.808c-.909 0-1.569-.246-1.983-.739-.415-.493-.621-1.096-.621-1.806V2.605zm89.899 0c0-.71.218-1.322.651-1.835.435-.513 1.086-.77 1.954-.77h17.398c.593 0 1.225.236 1.896.71s1.006 1.105 1.006 1.895v82.68c0 1.737-.967 2.605-2.901 2.605h-17.398c-1.737 0-2.605-.868-2.605-2.605V2.605z"/></svg>