<svg xmlns="http://www.w3.org/2000/svg" width="293" height="290.75" viewBox="0 0 293 290.75"><path fill="#196A6E" d="M256.526 0H36.14C16.18 0 0 16.181 0 36.14v218.14c0 19.958 16.18 36.14 36.14 36.14h182.687v-37.7c0-19.96 16.18-36.141 36.139-36.141l37.7-1.839V36.14C292.667 16.181 276.486 0 256.526 0z"/><path fill="#E74424" d="M221.4 151.61c0 10.568-8.567 19.137-19.141 19.137h-30.386v30.389c0 10.573-8.566 19.143-19.141 19.143h-12.799c-10.571 0-19.144-8.57-19.144-19.143v-30.389H90.403c-10.566 0-19.137-8.568-19.137-19.137v-12.806c0-10.567 8.57-19.136 19.137-19.136h30.386V89.282c0-10.574 8.573-19.141 19.144-19.141h12.799c10.574 0 19.141 8.567 19.141 19.141v30.386h30.386c10.574 0 19.141 8.569 19.141 19.136v12.806z"/><path fill="#0C4444" d="M218.759 251.782v38.637l73.907-75.679H255.8c-20.457 0-37.041 16.584-37.041 37.042z"/><path fill="#F7F1E6" d="M202.259 119.668h-30.386V89.282c0-10.574-8.566-19.141-19.141-19.141h-12.799c-10.571 0-19.144 8.567-19.144 19.141v30.386H90.403c-10.566 0-19.137 8.569-19.137 19.136v12.806c0 10.568 8.57 19.137 19.137 19.137h30.386v30.389c0 10.573 8.573 19.143 19.144 19.143h12.799c10.574 0 19.141-8.57 19.141-19.143v-30.389h30.386c10.574 0 19.141-8.568 19.141-19.137v-12.806c0-10.567-8.568-19.136-19.141-19.136z"/></svg>