<?xml version="1.0" encoding="utf-8"?>
<!-- Generator: Adobe Illustrator 16.0.0, SVG Export Plug-In . SVG Version: 6.00 Build 0)  -->
<!DOCTYPE svg PUBLIC "-//W3C//DTD SVG 1.1//EN" "http://www.w3.org/Graphics/SVG/1.1/DTD/svg11.dtd">
<svg version="1.1" id="Layer_1" xmlns="http://www.w3.org/2000/svg" xmlns:xlink="http://www.w3.org/1999/xlink" x="0px" y="0px"
	 width="293px" height="290.75px" viewBox="0 0 293 290.75" enable-background="new 0 0 293 290.75" xml:space="preserve">
<path fill="#196A6E" d="M256.526,0H146.333H36.14C16.18,0,0,16.181,0,36.14v218.14c0,19.958,16.18,36.14,36.14,36.14h110.193h72.494
	V252.72c0-19.96,16.18-36.141,36.139-36.141l37.7-1.839V36.14C292.667,16.181,276.486,0,256.526,0z"/>
<path fill="#E74424" d="M221.4,151.61c0,10.568-8.567,19.137-19.141,19.137h-30.386v30.389c0,10.573-8.566,19.143-19.141,19.143
	h-11.055h-1.744c-10.571,0-19.144-8.57-19.144-19.143v-30.389H90.403c-10.566,0-19.137-8.568-19.137-19.137v-12.806
	c0-10.567,8.57-19.136,19.137-19.136h30.386V89.282c0-10.574,8.573-19.141,19.144-19.141h1.744h11.055
	c10.574,0,19.141,8.567,19.141,19.141v30.386h30.386c10.574,0,19.141,8.569,19.141,19.136V151.61z"/>
<path fill="#0C4444" d="M218.759,251.782v38.637l73.907-75.679H255.8C235.343,214.74,218.759,231.324,218.759,251.782z"/>
<path fill="#F7F1E6" d="M202.259,119.668h-30.386V89.282c0-10.574-8.566-19.141-19.141-19.141h-11.055h-1.744
	c-10.571,0-19.144,8.567-19.144,19.141v30.386H90.403c-10.566,0-19.137,8.569-19.137,19.136v12.806
	c0,10.568,8.57,19.137,19.137,19.137h30.386v30.389c0,10.573,8.573,19.143,19.144,19.143h1.744h11.055
	c10.574,0,19.141-8.57,19.141-19.143v-30.389h30.386c10.574,0,19.141-8.568,19.141-19.137v-12.806
	C221.4,128.237,212.832,119.668,202.259,119.668z"/>
</svg>
