<?xml version="1.0" encoding="utf-8"?>
<!-- Generator: Adobe Illustrator 16.0.0, SVG Export Plug-In . SVG Version: 6.00 Build 0)  -->
<!DOCTYPE svg PUBLIC "-//W3C//DTD SVG 1.1//EN" "http://www.w3.org/Graphics/SVG/1.1/DTD/svg11.dtd">
<svg version="1.1" id="Layer_1" xmlns="http://www.w3.org/2000/svg" xmlns:xlink="http://www.w3.org/1999/xlink" x="0px" y="0px"
	 width="293px" height="290.75px" viewBox="0 0 293 290.75" enable-background="new 0 0 293 290.75" xml:space="preserve">
<path fill="#E67373" d="M256.819,0H146.5H36.182C16.199,0,0,16.199,0,36.181v218.388c0,19.982,16.199,36.181,36.182,36.181H146.5
	h72.577v-37.742c0-19.983,16.199-36.182,36.181-36.182L293,214.985V36.181C293,16.199,276.801,0,256.819,0z"/>
<path fill="#AC5656" d="M219.008,252.069v38.681L293,214.985h-36.909C235.611,214.985,219.008,231.588,219.008,252.069z"/>
<g>
	<path fill="#F7F1E6" d="M143.413,68.421c-31.019,0-56.167,25.148-56.167,56.167c0,46.071,56.167,95.292,56.167,95.292
		s56.167-46.695,56.167-95.289C199.579,93.57,174.431,68.421,143.413,68.421z M143.413,158.669
		c-19.17,0-34.709-15.544-34.709-34.709c0-19.17,15.536-34.708,34.709-34.708c19.167,0,34.708,15.538,34.708,34.708
		C178.121,143.125,162.58,158.669,143.413,158.669z"/>
</g>
</svg>
