<svg xmlns="http://www.w3.org/2000/svg" width="293" height="290.75" viewBox="0 0 293 290.75"><path fill="#E67373" d="M256.819 0H36.182C16.199 0 0 16.199 0 36.181v218.388c0 19.982 16.199 36.181 36.182 36.181h182.895v-37.742c0-19.983 16.199-36.182 36.181-36.182L293 214.985V36.181C293 16.199 276.801 0 256.819 0z"/><path fill="#AC5656" d="M219.008 252.069v38.681L293 214.985h-36.909c-20.48 0-37.083 16.603-37.083 37.084z"/><path fill="#F7F1E6" d="M143.413 68.421c-31.019 0-56.167 25.148-56.167 56.167 0 46.071 56.167 95.292 56.167 95.292s56.167-46.695 56.167-95.289c-.001-31.021-25.149-56.17-56.167-56.17zm0 90.248c-19.17 0-34.709-15.544-34.709-34.709 0-19.17 15.536-34.708 34.709-34.708 19.167 0 34.708 15.538 34.708 34.708 0 19.165-15.541 34.709-34.708 34.709z"/></svg>